<svg width="36" height="36" viewBox="0 0 36 36" fill="none" xmlns="http://www.w3.org/2000/svg">
<path d="M14.5327 15.0063L28.0002 3.78293C28.3711 3.47463 28.5751 3.06244 28.5751 2.62293C28.5751 2.18317 28.3711 1.77122 28.0002 1.46244L26.8201 0.479512C26.4499 0.170244 25.955 0 25.4275 0C24.9001 0 24.4058 0.170244 24.0353 0.479512L8.00003 13.842C7.62803 14.1517 7.42433 14.5656 7.42579 15.0056C7.42433 15.4476 7.62774 15.861 8.00003 16.171L24.0203 29.5205C24.3909 29.8298 24.8852 30 25.4129 30C25.9403 30 26.4347 29.8298 26.8055 29.5205L27.9853 28.5376C28.753 27.8978 28.753 26.8563 27.9853 26.2168L14.5327 15.0063Z" fill="white"/>
</svg>
