<svg width="36" height="36" viewBox="0 0 36 36" fill="none" xmlns="http://www.w3.org/2000/svg">
<path d="M21.4673 15.0063L7.99977 3.78293C7.62894 3.47463 7.42494 3.06244 7.42494 2.62293C7.42494 2.18317 7.62894 1.77122 7.99977 1.46244L9.17987 0.479512C9.55011 0.170244 10.045 0 10.5725 0C11.0999 0 11.5942 0.170244 11.9647 0.479512L28 13.842C28.372 14.1517 28.5757 14.5656 28.5742 15.0056C28.5757 15.4476 28.3723 15.861 28 16.171L11.9797 29.5205C11.6091 29.8298 11.1148 30 10.5871 30C10.0597 30 9.56533 29.8298 9.1945 29.5205L8.0147 28.5376C7.24699 27.8978 7.24699 26.8563 8.0147 26.2168L21.4673 15.0063Z" fill="white"/>
</svg>
