<svg width="230" height="37" viewBox="0 0 230 37" fill="none" xmlns="http://www.w3.org/2000/svg">
<path d="M74.6723 11.3377H69.2185V32.9108H74.6723V11.3377Z" fill="#242E3B"/>
<path d="M59.3367 15.7248V21.6222C59.3367 25.0378 59.2603 27.2004 59.8609 27.7384C60.5864 28.391 61.8986 28.2903 62.7318 28.2903L64.1655 28.2625V32.8474C63.7774 32.8474 62.1614 32.848 61.9553 32.8474C60.9429 32.8445 60.0587 32.8514 59.1075 32.7021C57.8266 32.5008 56.5595 32.0218 55.6187 31.1297C53.3136 28.9394 53.8447 25.4648 53.8447 22.608C53.8447 20.7267 53.8447 18.8419 53.8447 16.9605C53.8447 16.8946 53.8447 15.7248 53.8447 15.7248H50.0781V11.247H53.8447V4.5408H59.3367V11.247H64.1655V15.7248H59.3367Z" fill="#242E3B"/>
<path d="M69.5916 8.70617C68.9529 8.09525 68.637 7.33854 68.637 6.42911C68.637 5.51967 68.9529 4.76296 69.5916 4.15204C70.2269 3.5446 71.0254 3.23914 71.987 3.23914C72.9486 3.23914 73.747 3.5446 74.3823 4.15204C75.0176 4.76296 75.337 5.52314 75.337 6.42911C75.337 7.33854 75.0176 8.09872 74.3823 8.70617C73.747 9.31709 72.9486 9.62255 71.987 9.62255C71.0254 9.62255 70.2269 9.31709 69.5916 8.70617Z" fill="#242E3B"/>
<path d="M112.86 13.5588C114.468 15.1659 115.27 17.4083 115.27 20.2858V32.8166H109.871V21.0217C109.871 19.3521 109.448 18.0712 108.597 17.1826C107.75 16.2975 106.594 15.8532 105.126 15.8532C103.657 15.8532 102.494 16.2975 101.637 17.1826C100.773 18.0678 100.346 19.3486 100.346 21.0217V32.8201H94.9474V21.0217C94.9474 19.3521 94.5238 18.0712 93.6733 17.1826C92.8262 16.2975 91.6668 15.8532 90.2018 15.8532C88.7125 15.8532 87.5357 16.2975 86.6747 17.1826C85.8138 18.0678 85.3833 19.3486 85.3833 21.0217V32.8201H79.9851V11.1498H85.3833V14.0413C86.0776 13.1422 86.9698 12.4341 88.0633 11.9204C89.1569 11.4067 90.358 11.1498 91.6702 11.1498C93.3435 11.1498 94.8328 11.5039 96.145 12.212C97.4573 12.9201 98.4709 13.9267 99.1895 15.2388C99.8839 14.0031 100.894 13.0138 102.217 12.2675C103.539 11.5247 104.977 11.1498 106.518 11.1498C109.139 11.1498 111.253 11.9516 112.86 13.5588Z" fill="#242E3B"/>
<path d="M140.001 23.5764H124.654C124.779 25.0933 125.31 26.2804 126.244 27.1378C127.177 27.9952 128.326 28.4256 129.691 28.4256C131.659 28.4256 133.062 27.5786 133.898 25.8847H139.619C139.012 27.9084 137.852 29.5676 136.134 30.8658C134.415 32.1675 132.308 32.8166 129.805 32.8166C127.785 32.8166 125.973 32.3688 124.369 31.4732C122.765 30.5777 121.515 29.3072 120.616 27.6654C119.717 26.0235 119.273 24.1283 119.273 21.9797C119.273 19.8102 119.714 17.9011 120.599 16.2592C121.484 14.6174 122.72 13.3539 124.31 12.4722C125.9 11.5871 127.733 11.1463 129.805 11.1463C131.801 11.1463 133.589 11.5767 135.169 12.4341C136.748 13.2914 137.974 14.5133 138.845 16.0892C139.716 17.6685 140.154 19.4805 140.154 21.525C140.15 22.2886 140.098 22.9689 140.001 23.5764ZM134.658 20.015C134.634 18.6509 134.141 17.5609 133.18 16.7383C132.218 15.9156 131.045 15.506 129.656 15.506C128.344 15.506 127.236 15.9052 126.341 16.7001C125.445 17.495 124.893 18.6023 124.692 20.015H134.658Z" fill="#242E3B"/>
<path d="M173.244 31.4803C171.633 30.5882 170.37 29.3212 169.45 27.6863C168.53 26.0514 168.072 24.1631 168.072 22.0249C168.072 19.8867 168.544 18.0019 169.488 16.3635C170.432 14.7286 171.72 13.4651 173.359 12.5696C174.994 11.6775 176.816 11.2297 178.83 11.2297C180.843 11.2297 182.666 11.6775 184.301 12.5696C185.936 13.4651 187.227 14.7286 188.172 16.3635C189.116 17.9984 189.588 19.8867 189.588 22.0249C189.588 24.1631 189.102 26.0514 188.137 27.6863C187.168 29.3212 185.86 30.5847 184.211 31.4803C182.562 32.3724 180.722 32.8202 178.68 32.8202C176.664 32.8202 174.851 32.3758 173.244 31.4803ZM181.378 27.5197C182.218 27.0546 182.891 26.3569 183.395 25.4266C183.898 24.4964 184.148 23.3648 184.148 22.0284C184.148 20.0429 183.627 18.5121 182.582 17.443C181.538 16.3739 180.26 15.8394 178.753 15.8394C177.247 15.8394 175.98 16.3739 174.959 17.443C173.938 18.5121 173.432 20.0429 173.432 22.0284C173.432 24.0174 173.928 25.5447 174.921 26.6138C175.914 27.6829 177.167 28.2174 178.677 28.2174C179.632 28.2174 180.534 27.9849 181.378 27.5197Z" fill="#242E3B"/>
<path d="M197.32 31.4803C195.709 30.5882 194.445 29.3212 193.525 27.6863C192.605 26.0514 192.147 24.1631 192.147 22.0249C192.147 19.8867 192.619 18.0019 193.564 16.3635C194.508 14.7286 195.796 13.4651 197.434 12.5696C199.069 11.6775 200.892 11.2297 202.905 11.2297C204.919 11.2297 206.741 11.6775 208.377 12.5696C210.012 13.4651 211.303 14.7286 212.247 16.3635C213.192 17.9984 213.664 19.8867 213.664 22.0249C213.664 24.1631 213.178 26.0514 212.213 27.6863C211.244 29.3212 209.935 30.5847 208.286 31.4803C206.637 32.3724 204.797 32.8202 202.756 32.8202C200.739 32.8202 198.931 32.3758 197.32 31.4803ZM205.454 27.5197C206.294 27.0546 206.967 26.3569 207.471 25.4266C207.974 24.4964 208.224 23.3648 208.224 22.0284C208.224 20.0429 207.703 18.5121 206.658 17.443C205.613 16.3739 204.336 15.8394 202.829 15.8394C201.319 15.8394 200.055 16.3739 199.035 17.443C198.014 18.5121 197.507 20.0429 197.507 22.0284C197.507 24.0174 198.004 25.5447 198.997 26.6138C199.989 27.6829 201.243 28.2174 202.753 28.2174C203.711 28.2174 204.61 27.9849 205.454 27.5197Z" fill="#242E3B"/>
<path d="M226.035 11.8856C226.508 11.7814 226.99 11.7224 227.469 11.6912C227.927 11.6599 228.389 11.6565 228.847 11.6634C229.077 11.6669 229.306 11.6738 229.538 11.6808C229.656 11.6842 230 11.6808 230 11.6808C230 11.6808 230 11.9897 230 12.0695C230 12.2465 230 12.4236 230 12.5971C230 13.5135 230 14.4299 230 15.3463C230 15.6066 230 15.86 230 16.1203C230 16.1203 228.368 16.1307 228.219 16.1307C227.573 16.1307 226.921 16.3112 226.664 16.3911C225.803 16.6653 225.001 17.2172 224.383 17.8837C223.567 18.7653 223.418 19.831 223.418 20.9764C223.418 21.0632 223.414 21.9796 223.414 22.0664L223.418 32.8095H217.926V11.2365H223.418C223.418 11.2365 223.418 13.2809 223.418 13.3226C223.418 13.2428 223.588 13.1213 223.64 13.0727C223.737 12.979 223.841 12.8922 223.949 12.8123C224.168 12.6423 224.404 12.4965 224.654 12.3715C225.088 12.1459 225.556 11.9897 226.035 11.8856Z" fill="#242E3B"/>
<path d="M144.33 17.0509C144.542 16.6378 144.792 16.2421 145.083 15.8707C146.211 14.4128 147.801 13.3402 149.534 12.7085C152.491 11.6324 156.175 11.9483 158.313 13.2708C158.306 10.7994 158.317 7.05748 158.313 4.58603H163.802C163.805 4.58603 163.809 4.5895 163.809 4.59297V32.8133C163.809 32.8168 163.805 32.8202 163.802 32.8202H158.733C158.726 32.8202 158.317 32.8133 158.317 32.8029C158.317 31.8379 158.317 31.7928 158.313 30.8174C156.681 33.2402 150.638 33.5145 147.465 31.3242C146.166 30.4286 145.097 29.1964 144.351 27.8079C143.299 25.8502 142.931 23.5662 143.163 21.3655C143.32 19.8694 143.642 18.3768 144.33 17.0509ZM158.039 19.3245C157.56 18.4532 156.914 17.7833 156.102 17.3181C155.289 16.853 154.418 16.6204 153.484 16.6204C152.554 16.6204 151.693 16.8495 150.905 17.3008C150.117 17.7555 149.478 18.4185 148.989 19.2897C148.499 20.161 148.253 21.1954 148.253 22.3895C148.253 23.5835 148.496 24.6284 148.989 25.5239C149.478 26.4195 150.124 27.1067 150.922 27.5858C151.724 28.0648 152.575 28.3008 153.484 28.3008C154.415 28.3008 155.289 28.0682 156.102 27.6031C156.914 27.138 157.56 26.4681 158.039 25.5968C158.514 24.7255 158.754 23.6773 158.754 22.4589C158.754 21.244 158.514 20.1957 158.039 19.3245Z" fill="#242E3B"/>
<path d="M25.1196 18.1782C26.0898 18.1782 26.8762 17.3918 26.8762 16.4218C26.8762 15.4517 26.0898 14.6654 25.1196 14.6654C24.1495 14.6654 23.363 15.4517 23.363 16.4218C23.363 17.3918 24.1495 18.1782 25.1196 18.1782Z" fill="#242E3B"/>
<path d="M29.4681 25.7313L29.4647 32.1911C29.4647 32.8367 28.7947 33.6108 28.083 33.7427C23.7089 34.555 10.5866 35.5824 10.5866 35.5824C9.98945 35.6623 9.98945 36.412 10.59 36.412H33.0959C34.12 36.412 34.9531 35.7872 34.9531 35.0201V22.9267L29.4681 25.7313Z" fill="#242E3B"/>
<path d="M10.6499 0.819248C10.6499 0.819248 23.6576 1.89183 27.938 2.64854C28.8441 2.80821 29.4655 3.40524 29.4655 4.09253V7.78581V9.49014V18.1749L34.954 15.2626V11.7741V11.2604V1.39199C34.954 0.624865 34.1243 6.10352e-05 33.0967 6.10352e-05H10.6672C10.0076 0.0798971 10.0423 0.711643 10.6499 0.819248Z" fill="#242E3B"/>
<path d="M9.0399 20.0075C9.21348 19.8444 9.00519 19.5667 8.80037 19.6917C5.47465 21.7084 -1.99258 26.922 0.499966 29.508C1.51018 30.5563 3.80138 30.6118 5.0546 30.5875C7.60269 30.5459 10.5951 30.1016 13.053 29.4282C16.2884 28.5396 19.5065 27.6024 22.6621 26.4361C25.665 25.3253 28.5811 24.034 31.4555 22.6039C34.4584 21.1079 37.43 19.3793 40.1482 17.3625C40.2454 17.2931 40.3391 17.2202 40.4328 17.1473C41.5333 16.3108 42.5782 15.384 43.5051 14.3392C44.3661 13.3673 45.4908 12.0899 44.9007 10.6563C44.4216 9.49 42.4394 9.1776 41.4743 9.11512C40.9744 9.08388 40.412 9.06999 39.9121 9.12553C39.8253 9.13594 39.6795 9.16371 39.683 9.20884C39.6865 9.30256 39.8948 9.29562 40.2246 9.43099C40.8078 9.66703 41.3945 10.1009 41.4222 10.7674C41.4431 11.2637 41.2209 11.7809 40.9675 12.1975C40.6932 12.6487 40.4085 12.9715 40.0857 13.3291C39.4712 14.0129 38.6346 14.7384 37.7875 15.3527C34.0071 18.0915 30.9139 19.5042 30.5321 19.6847C25.606 21.9965 19.5621 24.0931 16.5627 24.756C14.4069 25.2316 12.199 25.6065 9.97027 25.537C9.06073 25.5093 7.24513 25.1726 7.02642 24.2007C6.6272 22.4686 7.97067 21.0107 9.0399 20.0075Z" fill="#242E3B"/>
</svg>
